<?xml version="1.0" encoding="UTF-8"?>
<svg id="Calque_1" xmlns="http://www.w3.org/2000/svg" version="1.1" viewBox="0 0 800 800">
  <!-- Generator: Adobe Illustrator 29.3.0, SVG Export Plug-In . SVG Version: 2.1.0 Build 146)  -->
  <defs>
    <style>
      .st0 {
        fill: #30c8e9;
      }

      .st1 {
        fill: #f97b3d;
      }
    </style>
  </defs>
  <path id="path620" class="st1" d="M139.3,230.3c-50,0-56,56.6-56,56.6-142.7,720.5,474,471.5,474,471.5,0,0,55.4-20.9,52.1-60.6,0,0-1.7-76-202.5-57.9,0,0-212.3,19.8-205.6-142.1,7.1-176.7-2.2-267.5-62-267.5"/>
  <path id="path622" class="st0" d="M259.4,611.4c-59,1.2-108.4-49.2-109.6-111.9-1.3-62.8,45.9-115.1,105-116.3,59.1-1.2,108.4,49.2,109.7,111.9,1.3,62.8-46,115.1-105,116.3"/>
  <path id="path624" class="st0" d="M660.7,569.6c50,0,55.9-56.5,55.9-56.5C859.4-207.4,242.6,41.6,242.6,41.6c0,0-55.4,20.9-52.1,60.5,0,0,1.7,76.1,202.4,57.9,0,0,212.4-19.8,205.8,142.1-7.2,176.7,2.1,267.5,62,267.5"/>
  <path id="path626" class="st1" d="M540.5,188.6c59-1.2,108.4,49.1,109.6,111.9,1.2,62.7-46,115.1-105,116.3-59,1.2-108.4-49.1-109.7-111.9-1.2-62.8,46-115.1,105-116.3"/>
</svg>