<?xml version="1.0" encoding="UTF-8"?>
<svg id="Calque_1" xmlns="http://www.w3.org/2000/svg" viewBox="0 0 6760.61045 7998.99423">
  <defs>
    <style>
      .cls-1 {
        fill: #29aecb;
      }

      .cls-2 {
        fill: #f37b3d;
      }
    </style>
  </defs>
  <g id="g7179">
    <path id="path620" class="cls-2" d="M773.87836,2303.1229c-499.98469,0-559.59902,565.46764-559.59902,565.46764-1426.86107,7203.80043,4739.35923,4714.75107,4739.35923,4714.75107,0,0,553.89718-209.22073,520.97972-606.06338,0,0-16.58896-760.37652-2024.30455-578.47911,0,0-2122.53819,198.29085-2056.18452-1420.82722,71.0202-1766.40467-21.51378-2674.849-620.25085-2674.849"/>
    <path id="path622" class="cls-1" d="M1975.16322,6113.54064c-590.18541,11.9704-1083.94951-491.56476-1096.13022-1118.96653-13.2182-627.92203,459.03212-1150.71289,1049.4758-1162.68274,590.70196-11.9704,1083.68904,491.56366,1096.39068,1118.70558,12.69946,627.66218-459.80915,1150.71344-1049.73408,1162.94424"/>
    <path id="path624" class="cls-1" d="M5987.19956,5695.28213c499.46594,0,559.34074-565.20888,559.34074-565.20888C7972.62653-2073.72774,1806.66233,415.84243,1806.66233,415.84243c0,0-553.63671,209.22073-520.72144,605.28271,0,0,16.58896,760.63583,2023.78581,578.74006,0,0,2123.83396-198.2914,2057.48029,1420.82668-71.53676,1766.40522,21.25331,2674.5897,619.99038,2674.5897"/>
    <path id="path626" class="cls-2" d="M4785.88843,1885.27917c589.92494-11.96985,1083.43076,491.30436,1096.13022,1119.22639,12.44118,627.14192-459.55087,1150.45358-1049.99455,1162.42398-590.18322,12.2308-1083.68904-491.30436-1096.39068-1118.70613-12.1829-627.66218,460.06961-1150.9744,1050.25283-1162.94424"/>
  </g>
</svg>